<?xml version="1.0" encoding="UTF-8" standalone="no"?>
<svg
   xmlns:dc="http://purl.org/dc/elements/1.1/"
   xmlns:cc="http://creativecommons.org/ns#"
   xmlns:rdf="http://www.w3.org/1999/02/22-rdf-syntax-ns#"
   xmlns:svg="http://www.w3.org/2000/svg"
   xmlns="http://www.w3.org/2000/svg"
   xmlns:sodipodi="http://sodipodi.sourceforge.net/DTD/sodipodi-0.dtd"
   xmlns:inkscape="http://www.inkscape.org/namespaces/inkscape"
   inkscape:export-ydpi="96"
   inkscape:export-xdpi="96"
   inkscape:export-filename="C:\D\Dev\Keysharp\Keysharp-2.png"
   inkscape:version="1.0 (4035a4fb49, 2020-05-01)"
   sodipodi:docname="Keysharp.svg"
   id="svg2144"
   version="1.1"
   y="0px"
   x="0px"
   viewBox="0 0 32 40"
   data-name="Layer 2">
  <metadata
     id="metadata2150">
    <rdf:RDF>
      <cc:Work
         rdf:about="">
        <dc:format>image/svg+xml</dc:format>
        <dc:type
           rdf:resource="http://purl.org/dc/dcmitype/StillImage" />
        <dc:title>24</dc:title>
      </cc:Work>
    </rdf:RDF>
  </metadata>
  <defs
     id="defs2148" />
  <sodipodi:namedview
     inkscape:current-layer="svg2144"
     inkscape:window-maximized="1"
     inkscape:window-y="-12"
     inkscape:window-x="-12"
     inkscape:cy="20"
     inkscape:cx="13.857143"
     inkscape:zoom="1"
     showgrid="false"
     id="namedview2146"
     inkscape:window-height="2014"
     inkscape:window-width="3840"
     inkscape:pageshadow="2"
     inkscape:pageopacity="0"
     guidetolerance="10"
     gridtolerance="10"
     objecttolerance="10"
     borderopacity="1"
     bordercolor="#666666"
     pagecolor="#ffffff" />
  <title
     id="title2136">24</title>
  <path
     inkscape:export-ydpi="96"
     inkscape:export-xdpi="96"
     style="fill:#81b4fe;stroke-width:9.10635"
     id="path2138"
     d="m 156.06525,92.783052 -9.39084,-105.967857 a 9.3908432,8.8306553 0 0 0 -9.39085,-8.124203 H 5.811786 a 9.3908432,8.8306553 0 0 0 -9.3908397,8.124203 L -12.969898,92.783052 a 9.3908432,8.8306553 0 0 0 9.3908443,9.537108 H 24.593469 v 17.6613 h -9.390841 a 9.3908432,8.8306553 0 0 0 -9.390842,8.83066 v 70.64524 a 9.3908432,8.8306553 0 0 0 18.781683,0 v -8.83066 h 18.78167 v 26.49198 a 9.3908432,8.8306553 0 0 0 9.390866,8.83065 H 90.32936 a 9.3908432,8.8306553 0 0 0 9.39085,-8.83065 V 190.6267 h 18.78169 v 8.83066 a 9.3908439,8.830656 0 0 0 18.78166,0 v -70.64524 a 9.3908432,8.8306553 0 0 0 -9.39084,-8.83066 h -9.39082 v -17.6613 h 28.17251 a 9.3908432,8.8306553 0 0 0 9.39084,-9.537108 z M 24.593469,137.64277 H 118.5019 v 35.32262 H 24.593469 Z m 56.345058,70.64525 H 62.156821 V 190.6267 H 80.938527 Z M 99.72021,119.98146 H 43.375139 v -17.6613 H 99.72021 Z M 6.656963,84.658847 14.451361,-3.647698 H 128.64399 l 7.7944,88.306545 z" />
  <text
     transform="scale(1.285438,0.77794494)"
     inkscape:export-ydpi="96"
     inkscape:export-xdpi="96"
     id="text2715"
     y="107.32914"
     x="-1.7442868"
     style="font-size:232.273px;line-height:0;font-family:sans-serif;fill:#af83f8;stroke-width:12.4432"
     xml:space="preserve"><tspan
       style="font-style:normal;font-variant:normal;font-weight:normal;font-stretch:normal;font-size:165.909px;line-height:1;font-family:'Bauhaus 93';-inkscape-font-specification:'Bauhaus 93, ';fill:#af83f8;stroke-width:12.4432"
       y="107.32914"
       x="-1.7442868"
       id="tspan2713"
       sodipodi:role="line">#</tspan></text>
  <text
     inkscape:export-ydpi="96"
     inkscape:export-xdpi="96"
     transform="matrix(0.83508105,-0.0094849,0,1.1974885,0,0)"
     id="text2719"
     y="135.17293"
     x="-73.930336"
     style="font-style:normal;font-variant:normal;font-weight:normal;font-stretch:normal;font-size:48.343px;line-height:1;font-family:'Microsoft Sans Serif';-inkscape-font-specification:'Microsoft Sans Serif';fill:#94e06c;stroke-width:2.26608;"
     xml:space="preserve"><tspan
       style="font-style:normal;font-variant:normal;font-weight:normal;font-stretch:normal;font-size:217.543px;line-height:1;font-family:'Microsoft Sans Serif';-inkscape-font-specification:'Microsoft Sans Serif';fill:#94e06c;stroke-width:2.26608;"
       y="135.17293"
       x="-73.930336"
       id="tspan2717"
       sodipodi:role="line"><tspan
   id="tspan2721"
   style="font-style:normal;font-variant:normal;font-weight:normal;font-stretch:normal;font-family:'Microsoft Sans Serif';-inkscape-font-specification:'Microsoft Sans Serif';fill:#94e06c;stroke-width:2.26608;">{  </tspan> <tspan
   id="tspan2727"
   style="font-style:normal;font-variant:normal;font-weight:normal;font-stretch:normal;font-family:'Microsoft Sans Serif';-inkscape-font-specification:'Microsoft Sans Serif';stroke-width:2.26608;fill:#94e06c;">}</tspan></tspan></text>
</svg>
