<?xml version="1.0" encoding="UTF-8" standalone="no"?>
<svg
   xmlns:dc="http://purl.org/dc/elements/1.1/"
   xmlns:cc="http://creativecommons.org/ns#"
   xmlns:rdf="http://www.w3.org/1999/02/22-rdf-syntax-ns#"
   xmlns:svg="http://www.w3.org/2000/svg"
   xmlns="http://www.w3.org/2000/svg"
   xmlns:sodipodi="http://sodipodi.sourceforge.net/DTD/sodipodi-0.dtd"
   xmlns:inkscape="http://www.inkscape.org/namespaces/inkscape"
   inkscape:export-ydpi="96"
   inkscape:export-xdpi="96"
   inkscape:export-filename="C:\D\Dev\keysharp\Keysharp_p.png"
   inkscape:version="1.0 (4035a4fb49, 2020-05-01)"
   sodipodi:docname="Keysharp_p.svg"
   id="svg2144"
   version="1.1"
   y="0px"
   x="0px"
   viewBox="0 0 32 40"
   data-name="Layer 2">
  <metadata
     id="metadata2150">
    <rdf:RDF>
      <cc:Work
         rdf:about="">
        <dc:format>image/svg+xml</dc:format>
        <dc:type
           rdf:resource="http://purl.org/dc/dcmitype/StillImage" />
        <dc:title>24</dc:title>
      </cc:Work>
    </rdf:RDF>
  </metadata>
  <defs
     id="defs2148" />
  <sodipodi:namedview
     inkscape:current-layer="svg2144"
     inkscape:window-maximized="1"
     inkscape:window-y="-12"
     inkscape:window-x="-12"
     inkscape:cy="20"
     inkscape:cx="13.857143"
     inkscape:zoom="1"
     showgrid="false"
     id="namedview2146"
     inkscape:window-height="2014"
     inkscape:window-width="3840"
     inkscape:pageshadow="2"
     inkscape:pageopacity="0"
     guidetolerance="10"
     gridtolerance="10"
     objecttolerance="10"
     borderopacity="1"
     bordercolor="#666666"
     pagecolor="#ffffff"
     inkscape:document-rotation="0" />
  <title
     id="title2136">24</title>
  <path
     inkscape:export-ydpi="96"
     inkscape:export-xdpi="96"
     style="fill:#81b4fe;stroke-width:9.10635"
     id="path2138"
     d="m 156.06525,92.783052 -9.39084,-105.967857 a 9.3908432,8.8306553 0 0 0 -9.39085,-8.124203 H 5.811786 a 9.3908432,8.8306553 0 0 0 -9.3908397,8.124203 L -12.969898,92.783052 a 9.3908432,8.8306553 0 0 0 9.3908443,9.537108 H 24.593469 v 17.6613 h -9.390841 a 9.3908432,8.8306553 0 0 0 -9.390842,8.83066 v 70.64524 a 9.3908432,8.8306553 0 0 0 18.781683,0 v -8.83066 h 18.78167 v 26.49198 a 9.3908432,8.8306553 0 0 0 9.390866,8.83065 H 90.32936 a 9.3908432,8.8306553 0 0 0 9.39085,-8.83065 V 190.6267 h 18.78169 v 8.83066 a 9.3908439,8.830656 0 0 0 18.78166,0 v -70.64524 a 9.3908432,8.8306553 0 0 0 -9.39084,-8.83066 h -9.39082 v -17.6613 h 28.17251 a 9.3908432,8.8306553 0 0 0 9.39084,-9.537108 z M 24.593469,137.64277 H 118.5019 v 35.32262 H 24.593469 Z m 56.345058,70.64525 H 62.156821 V 190.6267 H 80.938527 Z M 99.72021,119.98146 H 43.375139 v -17.6613 H 99.72021 Z M 6.656963,84.658847 14.451361,-3.647698 H 128.64399 l 7.7944,88.306545 z" />
  <text
     transform="scale(1.285438,0.77794494)"
     inkscape:export-ydpi="96"
     inkscape:export-xdpi="96"
     id="text2715"
     y="107.32914"
     x="-1.7442868"
     style="font-size:232.273px;line-height:0;font-family:sans-serif;fill:#af83f8;stroke-width:12.4432"
     xml:space="preserve"><tspan
       style="font-style:normal;font-variant:normal;font-weight:normal;font-stretch:normal;font-size:165.909px;line-height:1;font-family:'Bauhaus 93';-inkscape-font-specification:'Bauhaus 93, ';fill:#af83f8;stroke-width:12.4432"
       y="107.32914"
       x="-1.7442868"
       id="tspan2713"
       sodipodi:role="line">#</tspan></text>
  <text
     inkscape:export-ydpi="96"
     inkscape:export-xdpi="96"
     transform="matrix(0.83508105,-0.0094849,0,1.1974885,0,0)"
     id="text2719"
     y="135.17293"
     x="-73.930336"
     style="font-style:normal;font-variant:normal;font-weight:normal;font-stretch:normal;font-size:48.343px;line-height:1;font-family:'Microsoft Sans Serif';-inkscape-font-specification:'Microsoft Sans Serif';fill:#94e06c;stroke-width:2.26608;"
     xml:space="preserve"><tspan
       style="font-style:normal;font-variant:normal;font-weight:normal;font-stretch:normal;font-size:217.543px;line-height:1;font-family:'Microsoft Sans Serif';-inkscape-font-specification:'Microsoft Sans Serif';fill:#94e06c;stroke-width:2.26608;"
       y="135.17293"
       x="-73.930336"
       id="tspan2717"
       sodipodi:role="line"><tspan
   id="tspan2721"
   style="font-style:normal;font-variant:normal;font-weight:normal;font-stretch:normal;font-family:'Microsoft Sans Serif';-inkscape-font-specification:'Microsoft Sans Serif';fill:#94e06c;stroke-width:2.26608;">{  </tspan> <tspan
   id="tspan2727"
   style="font-style:normal;font-variant:normal;font-weight:normal;font-stretch:normal;font-family:'Microsoft Sans Serif';-inkscape-font-specification:'Microsoft Sans Serif';stroke-width:2.26608;fill:#94e06c;">}</tspan></tspan></text>
  <path
     style="fill:#a3a3a3;stroke-width:1.00157;paint-order:markers fill stroke;fill-opacity:1"
     d="m -12.941685,-26.982422 c -7.509013,0.0036 -15.02286,3.310811 -18.375964,10.36589 -7.39506,12.809495 -5.541738,28.382701 -6.77528,42.57469 -1.258764,16.659565 2.116798,34.529658 -5.02649,50.184422 -2.265809,5.31893 -7.647426,8.60275 -13.222657,9.08008 0.111872,6.56327 -0.220093,13.28551 0.16211,19.75195 11.12856,0.23278 15.72707,12.24821 16.734375,21.60351 2.458096,22.72316 0.08388,45.83812 3.865234,68.41211 2.159431,9.3148 7.619204,20.18199 18.472656,20.73047 3.672041,0.4852 7.599143,0.66934 11.164063,0.2793 -0.14217,-6.36836 0.27483,-12.96833 -0.199219,-19.19922 -6.410928,1.39444 -13.594204,-2.45167 -14.080078,-9.3789 -2.770797,-23.58943 -0.151709,-47.76365 -5.341797,-71.04688 -2.020599,-9.04488 -8.996129,-16.53494 -16.150391,-21.45898 12.974389,-7.77408 18.227757,-23.411403 18.621216,-37.884353 1.638769,-19.206503 0.590326,-38.68413 3.386597,-57.756276 1.602858,-6.03896 8.324342,-7.86682 13.763672,-7.275391 -0.149867,-6.455357 0.29198,-13.167385 -0.212891,-19.46875 -2.261719,0.162109 -4.523437,0.324219 -6.785156,0.486328 z"
     id="path1520" />
  <path
     style="fill:#a3a3a3;fill-opacity:1;stroke-width:1.00157;paint-order:markers fill stroke"
     d="m -12.414341,-26.779297 c -10.362977,0.263112 -19.502521,7.70554 -21.736328,17.847656 -4.132893,18.882439 -3.672467,38.491705 -4.208985,57.738282 -0.592619,11.794186 -0.113262,26.982599 -11.115234,34.267579 -2.802187,1.74074 -7.715796,1.86824 -6.765625,6.5039 0.483216,4.95952 -1.409623,10.95222 0.992187,15.41016 10.879442,0.5815 15.210555,12.81124 15.775391,22.13672 2.257374,23.02093 1.114666,46.39931 4.77139,69.25085 2.272928,9.42249 8.980604,19.54868 19.804782,19.32142 4.351229,0.24215 11.329407,2.40462 8.953125,-4.69727 -1.473972,-4.23839 3.419451,-14.54544 -3.18928,-13.98794 -6.115115,0.49579 -11.134906,-4.49181 -11.131033,-10.51597 -3.145252,-24.09167 -0.296164,-49.04026 -6.810547,-72.66211 -2.413347,-7.90137 -8.841147,-13.46722 -14.695312,-18.86718 11.796232,-8.70291 17.833691,-23.072723 18.303735,-37.450582 1.634407,-19.389197 0.958225,-39.090096 3.856421,-58.301374 1.653716,-5.93628 8.377871,-7.668408 13.666016,-8.238282 -0.161808,-6.105309 0.306919,-12.490883 -0.220703,-18.433593 -2.083334,0.225911 -4.166667,0.451823 -6.25,0.677734 z"
     id="path1522" />
  <path
     style="fill:#a3a3a3;fill-opacity:1;stroke-width:1.00157;paint-order:markers fill stroke"
     d="m 57.857143,-21.181641 c -18.61842,0.374877 -37.400936,-0.466729 -55.921875,1.132813 -5.89183,2.937605 -4.460335,11.264946 -5.859342,16.661082 -3.16819,32.572957 -6.420199,65.194484 -8.347689,97.850636 0.974285,6.69558 8.95177,8.424 14.634765,7.71484 7.431542,0.0419 14.863297,0.0126 22.294922,0.0215 -0.689611,5.478 1.354849,13.47983 -0.996807,17.42359 -6.273934,0.30007 -15.161228,0.31287 -17.51183,7.41817 0.240728,24.73733 -1.4428,49.59369 0.496918,74.26566 1.647873,8.22168 13.936836,8.41144 16.845704,1.05274 1.03859,-3.95529 0.348947,-8.1254 0.564453,-12.16016 6.533854,0 13.067708,0 19.601562,0 0.677681,10.18407 -1.33827,20.81971 1.09375,30.76953 2.228412,4.29027 6.539006,4.94283 11.013672,4.23047 12.770738,-0.0395 25.573019,0.0786 38.324217,-0.0586 7.590367,-4.83513 4.09968,-14.78382 4.9668,-22.0957 0.74051,-5.54139 -3.07439,-15.63819 5.999997,-12.8457 5.02028,1.18024 15.91575,-3.51472 13.60156,5 -0.93922,5.63647 2.08441,11.92331 8.2461,12.52344 6.05756,1.09336 10.8768,-5.02355 9.86914,-10.80274 0.19206,-23.60507 0.99263,-47.31177 -0.68555,-70.86523 -2.50233,-6.90536 -12.09723,-6.05377 -18.03125,-6.25196 0.67672,-5.52445 -1.34252,-13.74485 1,-17.60351 10.99716,-0.84045 22.8409,1.84408 33.34961,-2.22852 5.5435,-4.02503 1.44312,-12.05031 2.16614,-17.63218 -2.41552,-32.692678 -5.52979,-65.356856 -8.48059,-97.986958 -3.68398,-4.621409 -8.31744,-6.841861 -14.26563,-5.550781 -24.65625,0.0071 -49.312518,-0.01686 -73.968747,0.01758 z m 70.740227,17.38086 c 3.22807,29.184559 5.76583,58.890656 7.89258,87.929691 C 93.029283,85.30201 49.536092,84.60029 6.062221,84.80078 9.366524,55.609992 11.355214,25.982226 14.191127,-3.078125 52.299317,-4.344978 90.471343,-3.582504 128.59737,-3.800781 Z M 71.357143,102.19922 c 9.433594,0 18.86719,0 28.30078,0 -0.67675,5.52376 1.342507,13.74355 -1,17.60156 -18.533853,0 -37.067707,0 -55.601561,0 0.676755,-5.52376 -1.342508,-13.74355 1,-17.60156 9.10026,0 18.200521,0 27.300781,0 z m 0,35 c 15.76693,0 31.533847,0 47.300777,0 0,11.86719 0,23.73437 0,35.60156 -31.533847,0 -63.067704,0 -94.601558,0 0,-11.86719 0,-23.73437 0,-35.60156 15.766927,0 31.533854,0 47.300781,0 z m 0.5,53 c 7.774505,-1.50758 11.862099,0.67175 9.800781,9 1.107764,6.97495 0.149484,11.88386 -8,9.60156 -6.196125,-0.004 -14.443316,2.04228 -11.601562,-7 0.480694,-5.38649 -2.681802,-14.41618 6,-11.60156 1.266927,0 2.533854,0 3.800781,0 z"
     id="path1524" />
  <path
     style="fill:#a3a3a3;fill-opacity:1;stroke-width:1.00157;paint-order:markers fill stroke"
     d="m 148.65792,-29 c 0.12807,6.286915 -0.24592,12.765234 0.17774,18.939453 5.84339,-0.294168 13.14703,2.051432 13.93164,8.75 2.78559,23.027186 0.69833,46.553283 4.73437,69.443359 2.24886,9.697658 8.04958,18.308268 16.16211,24.017578 -0.16229,2.28071 -4.4112,2.91667 -5.57421,5.10352 -13.92222,13.49024 -12.18766,34.56566 -13.31569,52.26636 -0.95555,12.78379 0.0724,25.96279 -2.53392,38.51489 -1.62113,5.89987 -8.33669,7.55158 -13.58204,6.96484 0.14885,6.44141 -0.28961,13.13597 0.21094,19.42578 9.37583,0.006 21.23709,-1.16273 25.4043,-11.13281 7.14886,-15.37964 5.62725,-33.00612 6.67773,-49.51367 0.74072,-14.76693 -1.52543,-30.87153 5.625,-44.41016 2.39102,-4.41855 7.57928,-5.80467 11.69727,-7.60547 1.10564,-6.28176 1.36885,-13.24278 0.0469,-19.45508 -3.6575,-0.75763 -7.68516,-1.84377 -10.10351,-5.25195 -8.54625,-10.878151 -6.53236,-26.068191 -7.19882,-39.058549 -0.55159,-16.614839 -0.0126,-33.591679 -3.80509,-49.855513 -2.67297,-7.581935 -7.60876,-15.820814 -16.50781,-16.505859 -3.92791,-0.780715 -8.17834,-1.095575 -12.04688,-0.636719 z"
     id="path1526" />
  <path
     style="fill:#a3a3a3;fill-opacity:1;stroke-width:1.00157;paint-order:markers fill stroke"
     d="m 44.857143,-2.0449219 c -1.770478,7.6153169 -3.541303,15.2305529 -5.3125,22.8457029 -6.552425,0.108751 -13.257598,-0.213756 -19.716797,0.158203 -0.27688,3.678511 -2.553489,7.964347 -1.855469,11.470704 5.924142,1.786575 12.763609,-0.472627 18.404297,1.61914 -0.812213,4.252398 -2.005715,8.489672 -2.878906,12.751953 -6.546303,0.107538 -13.242149,-0.211241 -19.697266,0.15625 0.432015,4.265188 -6.7986702,14.421246 1.397029,12.948323 4.206339,1.680561 16.187086,-2.420101 14.430263,3.696009 -0.994796,6.144849 -4.010957,12.448486 -3.649557,18.625199 6.879185,2.132812 14.829348,0.501254 21.921875,0.81836 1.770478,-7.615317 3.541303,-15.230553 5.3125,-22.845703 7.066155,0.415546 14.638658,-0.850302 21.441406,0.892578 -1.17011,7.451035 -3.890382,14.881491 -4.845703,22.173828 7.545253,-0.295655 15.242905,-0.179345 22.697266,-0.720703 1.686365,-7.283164 3.372567,-14.566367 5.058593,-21.84961 7.353506,-0.290331 14.855326,-0.175999 22.119136,-0.710937 -0.37026,-4.3067 7.18534,-14.935398 -1.09961,-13.183594 -5.39464,-0.669286 -14.05488,1.330409 -17.44157,-0.979989 1.29239,-4.053689 1.126,-10.242151 3.94548,-12.621573 6.95643,-0.105752 14.0606,0.209654 20.92578,-0.15625 -0.0135,-3.760761 4.03491,-10.217723 1.68164,-12.242188 -6.72519,-0.283018 -14.23553,0.565057 -20.58984,-0.595703 1.31624,-7.320586 3.95277,-14.8754865 4.73437,-22.0312499 C 103.90133,-2.4115054 95.775384,-2.262492 87.907924,-2.0429688 85.78311,5.1980449 85.32657,13.402165 82.271205,20.144531 c -5.906539,1.137383 -12.295942,0.908566 -18.207031,-0.109375 0.966836,-7.16131 3.793188,-14.3610748 4.5,-21.3730466 C 61.143696,-3.2522671 52.44866,-1.7894962 44.857143,-2.0449219 Z M 69.859096,33.199219 c 3.078617,0.882965 9.671892,-1.887804 10.753906,2.373047 -0.413138,3.657712 -1.759995,7.144945 -2.539062,10.732422 -7.265011,0.183431 -14.529986,0.368298 -21.794922,0.554687 1.473866,-4.09305 1.506979,-9.243965 3.212891,-13.007813 3.356004,-0.864399 6.933786,-0.525756 10.367187,-0.652343 z"
     id="path1528" />
  <path
     style="fill:#a3a3a3;fill-opacity:1;stroke-width:1.00157;paint-order:markers fill stroke"
     d="m -12.791295,-26.896484 c -9.645992,0.1599 -18.378713,6.690399 -20.820312,16.105468 -5.457941,18.035864 -3.605753,37.299458 -4.990234,55.876954 -1.291331,11.95168 1.200092,26.639901 -8.447266,35.771482 -2.401182,2.50604 -5.762546,3.72206 -8.894531,4.70313 0.555465,6.32407 -1.721481,13.40553 0.402344,19.41406 9.570896,0.56011 14.584538,11.02952 15.503906,19.51562 3.629703,25.21607 0.103188,51.26418 6.572265,76.08204 2.471194,8.89468 10.708023,15.80801 20.167969,15.3789 6.604083,1.9589 8.986693,-1.35127 7.455078,-7.95117 -0.870557,-4.30867 2.937786,-13.49417 -4.623047,-11.30859 -7.196396,0.0737 -10.754474,-7.80837 -10.107422,-14.125 -2.362449,-22.81882 -0.210471,-46.32151 -6.30664,-68.625 -2.436961,-7.91057 -8.797037,-13.56391 -14.564453,-19.10352 11.794911,-8.6971 17.628873,-23.095264 18.077341,-37.434193 1.808537,-19.451434 0.95896,-39.301519 4.049612,-58.526744 1.696499,-5.847976 8.777394,-6.480065 13.474609,-8.115234 -0.249587,-6.050114 0.468983,-12.531409 -0.332031,-18.335938 -2.205729,0.225912 -4.411458,0.451823 -6.617188,0.677735 z"
     id="path1530" />
  <path
     style="fill:#a3a3a3;fill-opacity:1;stroke-width:1.00157;paint-order:markers fill stroke"
     d="m 148.55636,-29.275391 c 0.15012,6.065956 -0.29903,12.335953 0.22266,18.275391 5.80837,1.159052 13.93617,3.263231 13.89844,10.685547 2.91356,23.337047 1.37609,47.177264 5.81836,70.308594 2.44017,8.985119 8.4962,16.219719 15.05273,22.478519 -6.11994,5.93978 -12.17406,12.41582 -14.40234,20.95898 -5.01304,17.86928 -3.53284,36.79013 -5.05994,55.1332 -1.42822,7.63992 1.23124,17.13836 -4.3346,23.37852 -2.90691,3.04371 -7.55641,2.95352 -11.19531,4.08008 0.2481,6.12564 -0.46854,12.68095 0.33203,18.56054 9.74576,-0.44537 22.04475,-2.31504 25.72461,-12.96289 7.51244,-19.54475 4.97959,-41.05635 6.46112,-61.5291 0.82079,-11.49893 -0.0243,-24.9734 8.18537,-34.14277 4.22875,-2.31199 10.39317,-4.29946 9.78568,-10.36505 0.35387,-5.23216 0.89794,-13.79363 -6.06303,-14.70722 -10.67866,-5.57218 -10.9689,-19.101857 -11.39924,-29.602375 -1.34659,-21.178062 -0.4439,-42.751054 -4.80779,-63.6027 -3.06654,-8.246001 -9.69127,-16.213103 -19.21232,-16.314503 -2.9462,-0.229219 -6.25803,-1.096966 -9.00643,-0.632763 z"
     id="path1532" />
  <path
     style="fill:#a3a3a3;fill-opacity:1;stroke-width:1.00157;paint-order:markers fill stroke"
     d="m 92.708703,-21.199219 c -30.08547,0.203925 -60.233165,0.148362 -90.279294,0.535157 -7.5810188,7.228414 -5.246735,18.945152 -7.1807802,28.261817 -2.7596477,28.877876 -5.4781548,57.865259 -7.2664858,86.769435 1.886278,4.24013 5.4312589,9.00092 10.699989,7.54234 8.646913,0.18746 17.293773,0.37729 25.940636,0.56703 -0.893008,5.2929 0.935371,12.92865 -1.542072,16.85486 -5.097098,1.64734 -14.572883,0.69751 -16.038006,7.46741 -1.15423,24.28629 -2.046053,48.74257 -0.052735,73.00586 0.028604,8.71408 14.504436,10.36877 16.152344,1.60156 1.227386,-3.56803 1.013931,-7.39488 1.015625,-11.10547 6.395834,0 12.791667,0 19.1875,0 0.929078,10.12198 -0.823559,20.75979 1.808594,30.60938 4.870315,6.82598 14.473551,3.44689 21.455077,4.38641 9.033519,-0.053 18.119316,0.12922 27.119138,-0.0915 7.606517,-5.59908 4.25447,-16.03521 5.40544,-23.97958 0.66461,-3.43368 -0.53719,-8.54044 1.520347,-11.12198 5.87828,-0.20752 12.04576,-0.32798 17.8164,0.6621 0.8261,5.45865 -0.74793,13.06014 5.78711,15.57618 5.58974,3.23757 12.93695,-1.91483 12.06445,-8.29492 0.75998,-23.50418 1.70799,-47.20041 -0.83984,-70.61719 -0.93226,-8.42593 -11.40733,-6.8704 -17.32422,-7.93164 0.70289,-5.36287 -1.37273,-13.50425 1,-17.19727 10.91374,-0.72003 22.94927,1.76583 33.125,-3.19726 5.01725,-4.72528 1.34934,-12.82485 1.90039,-18.7754 -2.7031,-32.185787 -4.9918,-64.517915 -8.74805,-96.548823 -5.97304,-7.408014 -16.63649,-4.008781 -24.76757,-5.011676 -9.31964,-0.04927 -18.63935,0.01217 -27.958987,0.03316 z m -21.359372,17.5 c 19.034502,0 38.069009,0 57.103509,0 3.78505,28.799611 5.9479,57.94233 8.09766,86.906249 -6.079,2.37299 -13.68358,0.81081 -20.3143,1.41423 -36.776448,0.15083 -73.553523,0.04646 -110.330229,0.07796 3.058302,-29.439731 5.17548,-58.972398 8.363281,-88.398439 19.026693,0 38.053386,0 57.080079,0 z m 0.0078,105.999999 c 9.39974,0 18.79948,0 28.19922,0 -0.68913,5.44369 1.356537,13.62216 -1,17.39844 -18.466147,0 -36.932293,0 -55.398439,0 0.689125,-5.44369 -1.356537,-13.62216 1,-17.39844 9.066406,0 18.132813,0 27.199219,0 z m 0,35 c 15.73307,0 31.466147,0 47.199217,0 0,11.79948 0,23.59896 0,35.39844 -31.466147,0 -62.93229,0 -94.398436,0 0,-11.79948 0,-23.59896 0,-35.39844 15.733073,0 31.466146,0 47.199219,0 z m -0.90625,52.42578 c 4.325079,-0.003 12.364423,-0.63157 11.792969,5.86524 -0.483005,4.26974 0.890847,10.22817 -2.564453,13.42773 -5.581483,0.82053 -11.882277,0.23172 -17.335938,-1.42773 -1.125375,-5.61686 -0.966884,-12.11903 1.007813,-17.49024 2.327764,-0.4513 4.729653,-0.32852 7.099609,-0.375 z"
     id="path1534" />
  <path
     style="fill:#a3a3a3;fill-opacity:1;stroke-width:1.00157;paint-order:markers fill stroke"
     d="m 44.978237,-2.2304688 c -1.658793,7.478385 -3.317019,14.9568958 -4.97461,22.4355468 -6.652182,0.356571 -13.553372,0.05947 -20.058593,0.800781 0.277696,3.261584 -3.569138,8.689859 -0.363282,11.230469 5.39985,1.145339 10.964169,1.093841 16.445313,1.542969 -0.705518,4.20882 -0.618419,10.424587 -3.478516,12.919922 -6.146299,0.163942 -12.518069,-0.319108 -18.529297,0.232422 0.0089,3.961538 -4.0484635,9.645514 -0.953125,13.148437 5.256709,0.721093 11.47925,-1.075411 16.341797,1.058594 1.117756,6.899188 -4.655843,13.999875 -2.019531,20.761719 5.630779,2.382588 12.545431,0.638585 18.569685,1.378883 4.353036,-0.87856 2.715868,-8.849586 4.616799,-12.642628 1.743049,-3.433421 0.255301,-11.354621 5.604532,-10.335865 5.82247,0.445422 12.637554,-0.896201 17.96289,1.13086 -0.06748,7.158711 -3.639443,14.385228 -3.113281,21.476562 7.126856,0.624363 14.562755,-0.561132 21.558594,-1.341797 1.611059,-7.088602 3.222375,-14.177147 4.833984,-21.265625 7.153364,-0.141488 14.486474,0.27608 21.531244,-0.203125 0.31087,-3.914059 4.92984,-8.737581 2.33985,-12.490234 -6.21297,-2.101533 -13.15913,-0.653682 -19.61523,-1.400391 0.49781,-4.227753 0.15183,-10.576062 3.62695,-12.90625 6.7811,-0.156878 13.77298,0.305306 20.42773,-0.222656 -0.10256,-3.564027 4.52077,-8.946302 1.05273,-11.826172 -6.40827,-1.48669 -13.26365,0.409649 -19.62109,-1.349609 0.42977,-6.832067 4.56995,-13.9506565 3.27344,-20.7988284 C 103.53963,-3.5217262 95.408127,-1.6594749 88.116909,-2.3007813 86.254616,5.2111862 84.990758,13.184619 82.571987,20.699219 76.749934,19.968635 70.260469,21.96596 64.76144,19.875 63.437507,13.014148 68.581805,5.8768421 67.523159,-1.078125 60.21835,-2.4329279 52.261592,-2.2799383 44.978237,-2.2304688 Z m 20.71875,35.5273438 c 4.572784,0.925234 11.162574,-1.809138 14.660156,1.970703 0.434019,3.804908 -1.480995,7.632993 -2.056641,11.431641 -7.162108,-0.583633 -15.061061,1.093258 -21.861328,-0.841797 1.654509,-3.759223 0.172093,-9.622494 3.867188,-12.128906 1.733305,-0.52 3.56563,-0.375753 5.390625,-0.431641 z"
     id="path1536"
     inkscape:export-xdpi="286.99973"
     inkscape:export-ydpi="286.99973" />
  <path
     id="path2092"
     d="m -12.601841,-26.685547 c -11.303532,-0.274584 -20.010973,8.893516 -22.054688,19.498047 -5.046057,25.65348 -1.570324,52.238203 -6.349609,77.912109 -1.543382,7.731571 -8.155407,12.802281 -15.136719,15.488281 0.626452,6.10077 -1.262504,13.05883 1.113281,18.70313 12.26708,1.94063 15.387354,15.93009 15.806641,26.43554 2.206868,23.08697 0.37537,46.74388 5.859375,69.40625 3.44485,9.90961 13.486245,16.44763 23.970636,15.21559 6.691253,0.82952 1.74256,-10.07657 3.250067,-14.4734 2.252733,-7.03144 -5.566667,-3.0379 -9.080078,-6.12695 -7.672885,-5.53262 -4.972571,-16.77333 -6.381808,-24.93226 -1.514891,-19.67594 -0.210178,-40.08701 -6.32327,-59.06774 -3.281351,-6.35936 -8.713584,-11.21697 -13.59961,-16.31836 10.036724,-7.95336 16.176239,-19.79509 17.080078,-32.558596 3.180694,-21.111556 1.160424,-42.783564 5.13086,-63.740235 1.75326,-5.472983 8.17744,-7.0091 13.173828,-7.914062 0,-6.04362 0,-12.08724 0,-18.130859 -2.152995,0.201171 -4.30599,0.402343 -6.458984,0.603515 z"
     style="fill:#e87878;fill-opacity:1;stroke-width:1.00157;paint-order:markers fill stroke" />
  <path
     id="path2094"
     d="m 148.85714,-20.15625 c -1.36911,6.96356 0.4103,10.632779 7.5918,11.333984 8.34636,2.18797 6.20788,11.734886 7.25477,18.152476 2.25447,21.083842 0.68483,42.735303 5.89562,63.40221 2.45714,8.00894 8.69649,13.92007 14.16211,19.94336 -12.27375,9.82518 -17.7715,25.48095 -17.74771,40.84743 -1.52125,18.14193 -0.63048,36.61585 -3.81674,54.54124 -1.75247,5.736 -8.24008,7.05513 -13.33985,8.17383 0,6.01563 0,12.03125 0,18.04688 10.07971,-0.57481 23.69511,-2.6789 26.12241,-14.56892 6.83723,-20.72933 4.60985,-42.97877 6.26445,-64.45006 0.155,-12.106 1.35977,-28.48684 14.85142,-33.18415 4.2541,-4.37883 2.82765,-11.90991 1.75391,-17.32031 -3.80782,-4.62487 -10.97705,-6.11231 -12.85937,-12.64453 -5.39499,-15.137962 -3.63854,-31.739468 -5.06883,-47.543184 -1.54792,-14.497971 1.13233,-30.641547 -6.93673,-43.569013 -4.62558,-8.808597 -15.32266,-9.762543 -24.12726,-10.280384 0,3.039714 0,6.079427 0,9.119141 z"
     style="fill:#e87878;fill-opacity:1;stroke-width:1.00157;paint-order:markers fill stroke" />
  <path
     id="path2096"
     d="m 92.921593,-20.958984 c -29.936367,0.55867 -59.974444,-0.600717 -89.8457,1.355468 -6.940107,3.194461 -5.349068,12.981274 -6.654711,19.243119 -3.0899842,31.648801 -6.3766245,63.428772 -8.081617,95.114307 2.5449829,4.54391 6.6859105,8.74846 12.318359,7.24609 8.066406,0 16.132813,0 24.199219,0 -0.534558,5.50775 1.057749,11.93066 -1.208984,16.97461 -5.453109,2.5348 -17.016799,1.23709 -16.50586,9.92969 -0.796445,24.0875 -2.198965,48.37444 0.402344,72.38086 1.675741,7.87569 15.446092,7.633 15.654297,-1.14258 1.40005,-5.07854 -1.592592,-12.81426 6.658203,-10.14258 5.082127,1.20746 15.982595,-3.54746 13.903496,4.99851 0.911527,8.62891 -1.011553,17.95966 1.94416,26.17922 5.722941,6.42195 15.489688,2.7589 22.970702,3.81968 9.074155,-0.86914 19.493152,2.08601 27.685552,-2.75327 4.707147,-7.31311 1.45671,-16.90103 2.63765,-25.11256 -0.39411,-3.43761 0.16418,-7.98886 4.815467,-7.02416 4.53575,0.93454 13.52739,-2.56608 14.94717,1.88736 -0.39289,6.14112 1.23037,14.49343 8.76768,14.97788 6.3828,0.36563 10.54333,-6.25253 8.82661,-12.13477 -0.32832,-22.90524 0.74425,-45.95399 -0.99849,-68.76953 -2.97766,-6.51003 -11.74626,-5.29152 -17.57422,-6.36133 0.87888,-5.39775 -0.91718,-13.44956 1.57337,-17.24821 10.87538,-1.24439 22.7254,0.89255 32.9364,-3.58968 4.30992,-4.66745 1.0076,-12.16175 1.59745,-17.8712 -2.50782,-31.903145 -4.6035,-63.898693 -8.83378,-95.62294 -1.5645,-7.465071 -11.6437,-5.360562 -17.22852,-6.162109 -11.63264,-0.284209 -23.27122,-0.192486 -34.906247,-0.171875 z M 128.68136,-4 c 3.73552,29.150094 6.31302,58.53658 7.63672,87.87305 C 92.993423,85.06361 49.580989,85.05569 6.236049,84.35352 6.325637,72.860524 8.310063,60.036647 9.129965,48.044126 10.885906,30.857577 11.956639,12.957813 14.152065,-3.775391 52.325965,-4.159677 90.505743,-3.937028 128.68136,-4 Z M 99.646203,110.73438 c 1.932607,8.44324 -2.74916,10.11431 -10.28862,8.85951 -15.526188,0.14579 -31.052376,0.29157 -46.578565,0.43736 0.861679,-5.50322 -0.894872,-13.68714 1.578081,-17.54064 18.526056,-0.17395 37.052113,-0.34791 55.578164,-0.52186 -0.09635,2.92187 -0.1927,5.84375 -0.28906,8.76563 z M 71.357143,137 c 15.83333,0 31.666667,0 47.499997,0 0,12 0,24 0,36 -31.666667,0 -63.33333,0 -94.999997,0 0,-12 0,-24 0,-36 15.833333,0 31.666667,0 47.5,0 z m -1.214844,52.625 c 4.670172,-0.0814 13.11002,-0.20894 12.337891,6.66211 -0.175946,4.81677 0.861021,14.08523 -6.44132,13.44979 -4.245463,-1.4319 -11.951325,1.452 -13.968836,-3.74667 0.337782,-5.0309 -2.157443,-12.33863 2.451171,-15.82226 1.78929,-0.65683 3.748861,-0.52905 5.621094,-0.54297 z"
     style="fill:#e87878;fill-opacity:1;stroke-width:1.00157;paint-order:markers fill stroke" />
  <path
     id="path2098"
     d="M 43.423549,5.9707031 C 41.779408,10.70681 41.995242,17.957597 38.763393,21 c -6.213542,0 -12.427083,0 -18.640625,0 -0.580931,3.755033 -3.997029,11.828162 2.707031,11.794922 4.270598,0.805675 9.720438,-0.788927 13.367188,1.175781 -0.79015,3.872991 0.04574,10.400934 -3.994141,12.439453 C 26.254871,47.417078 20.177949,46.83808 14.175502,47 c -0.174568,3.780974 -3.325784,8.948639 -1.28125,12.285156 5.227091,2.04108 12.487808,-1.435437 16.617188,2.708985 1.156708,6.598629 -4.405132,13.57158 -1.775391,19.898437 6.434299,1.512032 13.544505,1.084516 20.121094,0.671875 1.402191,-7.57887 3.05791,-15.12308 5.076172,-22.564453 6.910836,0.622209 14.844082,-1.269843 21.222656,1.396484 1.068012,6.998641 -4.704388,14.225015 -2.568359,20.955078 6.529378,1.431708 13.788466,-0.229402 20.376953,-0.964843 2.38107,-6.921398 3.478495,-14.217622 5.183594,-21.324219 7.330731,-0.1875 14.661451,-0.375 21.992181,-0.5625 0.066,-3.638242 4.88576,-9.118965 1.33594,-11.996094 -6.26952,-1.190264 -12.76392,-0.567602 -19.11914,-1.003906 0.48693,-4.939123 0.13143,-14.245378 7.61328,-13.070312 5.49296,-0.250407 10.99249,-0.322969 16.48828,-0.494141 -0.11677,-3.426875 4.82595,-9.436131 0.64844,-11.611328 -6.11957,-1.021158 -12.8953,0.628367 -18.71484,-1.333985 -0.27966,-6.99399 4.33175,-14.1633735 2.65625,-20.8710934 C 103.01907,-2.7753529 95.436136,-1.6538076 88.196987,-2 86.522829,5.6973008 84.96755,13.431256 82.763393,21 76.848282,20.402194 69.877123,22.210829 64.515346,19.5625 63.84449,12.739548 68.034716,5.8652024 67.279018,-0.859375 60.003451,-2.1386947 52.540687,-1.7675902 45.183315,-2.1679688 44.596726,0.5449219 44.010138,3.2578125 43.423549,5.9707031 Z M 72.546596,33.029297 c 3.102497,0.05813 9.797395,-0.397322 7.941406,4.714844 C 80.276376,44.531782 78.173863,49.224813 70.583705,47 c -4.456098,-0.469899 -10.229596,0.865141 -14.0625,-0.964844 0.934024,-3.81057 0.3338,-9.895179 3.763672,-12.322265 4.025714,-0.768823 8.179816,-0.713796 12.261719,-0.683594 z"
     style="fill:#d85f5f;fill-opacity:1;stroke-width:1.00157;paint-order:markers fill stroke" />
  <path
     id="path2100"
     d="m 63.486049,-20.009766 c -20.097824,0.497222 -40.371445,-0.717764 -60.355468,1.449219 -6.146336,3.253929 -4.199432,12.061446 -5.815544,17.823742 -3.5710374,31.30735 -6.7322272,62.726901 -8.227425,94.193835 1.3450528,5.11632 5.9812037,9.63584 11.598235,8.17137 7.977021,0.17074 15.954041,0.34148 23.931062,0.51222 -0.09318,5.51427 2.706862,13.39534 -1.923828,17.58204 -4.613693,2.10772 -12.500431,1.78928 -14.576172,7.12695 -1.01909,23.64655 -2.029199,47.454 -0.28829,71.07532 -0.375377,5.8587 5.375042,9.92246 10.716024,7.54577 7.273559,-2.31237 1.641876,-12.72598 7.292969,-15.82031 5.828363,0.0403 12.95738,-1.55289 18.052734,1.4668 2.312896,10.03574 -1.283168,21.3295 3.378906,30.69726 7.637504,4.63028 17.49515,1.78293 26.021485,2.51172 7.293834,-1.02698 15.969266,1.42875 22.367186,-2.80859 5.015657,-9.14652 1.35688,-20.57332 3.67969,-30.41797 5.805487,-1.32687 12.508917,-2.65848 18.275387,-1.17969 2.87943,5.02777 1.51238,15.03877 9.00391,16.05469 6.91186,1.45976 10.19524,-6.31838 9.17187,-12.01563 0.17117,-22.71216 -0.30988,-45.4247 -0.43164,-68.13671 -4.65764,-4.9424 -11.81995,-4.67291 -18,-5.81446 0.99262,-5.53603 -0.56232,-13.58946 1.99762,-17.57672 10.91299,-1.39829 22.8323,-0.0228 32.97308,-4.78656 3.14278,-7.19154 0.18427,-15.80583 0.45525,-23.49547 -2.35918,-30.119753 -4.0253,-60.426926 -9.01384,-90.236951 -4.36324,-5.986098 -13.10726,-2.485044 -19.39029,-3.640655 -20.29588,-0.297281 -40.595265,-0.305996 -60.892911,-0.28122 z m 8.203125,16.251954 c 19.222659,0.085937 38.445306,0.171874 57.667966,0.257812 3.43008,28.981851 5.68039,58.086885 7.62695,87.20117 C 106.80384,85.86367 76.458001,84.60068 46.210659,85 32.759487,85 19.308315,85 5.857143,85 7.350629,56.18881 10.51602,27.446427 13.435268,-1.257812 14.97415,-7.098019 24.891018,-2.553 30.019092,-3.944098 c 13.890028,0.062095 27.780055,0.12419 41.670082,0.186286 z M 100.3298,109.36328 c -0.0247,4.01477 0.39806,11.30741 -5.810547,10.26563 -17.374407,0.71312 -34.776535,0.22531 -52.16211,0.375 0.994424,-5.49394 -0.565688,-13.66739 1.999957,-17.51323 18.666671,-0.17436 37.333353,-0.34762 56.00004,-0.51998 -0.009,2.4642 -0.0182,4.92839 -0.0273,7.39258 z M 71.357143,137 c 15.83333,0 31.666667,0 47.499997,0 0,12 0,24 0,36 -31.666667,0 -63.33333,0 -94.999997,0 0,-12 0,-24 0,-36 15.833333,0 31.666667,0 47.5,0 z m -1.251953,51.89648 c 5.294251,0.25255 14.416442,1.04932 12.773437,8.66797 0.04544,4.79236 0.01326,13.31218 -7.021484,12.35938 -5.148526,0.046 -14.601665,1.29418 -14.1875,-6.54492 -0.866459,-5.46857 -0.954761,-15.49984 7.080078,-14.49414 l 0.667969,-0.004 z"
     style="fill:#d85f5f;fill-opacity:1;stroke-width:1.00157;paint-order:markers fill stroke" />
  <path
     id="path2102"
     d="m 148.85714,-21.675781 c -0.5391,5.195567 0.96657,12.244363 7.41407,12.36914 9.18836,2.796952 6.82758,14.439478 8.19297,21.759132 2.14992,21.33257 0.4449,43.546802 7.41835,64.078759 2.87057,6.13227 8.84019,10.52327 11.88477,16.26953 -7.1598,7.9781 -14.34699,16.71653 -15.41853,27.87815 -4.01123,22.87779 -1.23541,46.63366 -6.73772,69.23318 -2.40331,4.37093 -7.98325,5.28152 -12.25391,6.89844 0.50578,5.31542 -1.80064,13.77202 0.4095,17.1802 9.90904,-1.25998 23.01232,-3.92859 25.19207,-15.60403 6.99137,-26.4831 2.99741,-54.39926 8.0332,-81.12891 1.46952,-7.49885 7.21741,-12.52166 13.00195,-16.76758 4.99265,-6.6652 2.29643,-17.1889 -5.26953,-20.79296 -9.99596,-6.77856 -8.25406,-20.370535 -9.91406,-30.839848 -2.19571,-20.178643 -0.50979,-40.899563 -5.24414,-60.726563 -2.75154,-11.440582 -14.51528,-16.947111 -25.43607,-16.900251 -2.7634,-1.138973 -0.5636,5.654503 -1.27292,7.093611 z"
     style="fill:#d85f5f;fill-opacity:1;stroke-width:1.00157;paint-order:markers fill stroke" />
  <path
     id="path2104"
     d="m -11.353795,-26.367187 c -12.371953,-0.235718 -22.573014,10.71613 -23.215719,22.765925 -4.141076,25.674942 -1.215288,52.213194 -7.208109,77.585642 -2.224618,6.08993 -8.089095,9.30567 -12.761718,12.9375 -1.626685,6.38103 -3.691578,16.96482 4.783203,19.41015 12.239729,7.76099 10.326949,24.16552 11.56817,36.66512 1.552217,18.92693 0.979283,38.28408 5.40058,56.82316 3.003561,10.13776 14.631068,17.89257 24.974609,15.32813 1.634914,-5.21775 1.786498,-11.8247 0.31836,-17.10938 -5.252551,-1.09596 -11.919764,-2.76287 -12.466797,-9.33398 -4.688348,-24.65223 -0.78108,-50.55185 -8.152746,-74.72946 -2.791933,-7.50682 -8.802628,-13.06669 -14.202723,-18.71976 12.212526,-10.21384 17.920088,-25.941428 18.09041,-41.559244 2.072519,-18.987402 0.619946,-38.58868 5.610762,-57.122397 2.169574,-4.810622 9.522797,-4.243392 12.006228,-7.278733 -1.059829,-4.713792 2.998212,-14.917515 -1.446786,-16.003775 -1.099241,0.1137 -2.198482,0.227401 -3.297724,0.341102 z"
     style="fill:#d85f5f;fill-opacity:1;stroke-width:1.00157;paint-order:markers fill stroke" />
  <path
     id="path2106"
     d="m -10.58231,-26.992187 c -13.766519,-0.307508 -24.432969,12.146725 -24.870587,25.381034 -3.148615,24.665698 -1.082195,49.993985 -6.693866,74.310373 -1.788143,6.84842 -8.558072,10.36294 -13.53711,14.19726 -0.336651,5.49107 -1.474221,12.13868 0.888672,17.12891 10.863532,3.91297 15.200411,15.84288 15.287054,26.55281 2.59395,23.54012 1.235389,47.65894 6.765681,70.78703 3.610652,10.61316 15.39313,16.19889 26.099609,14.13477 -0.64425,-5.78306 1.294363,-13.6887 -0.981045,-18.13128 -6.342313,-0.0501 -12.038181,-4.23142 -12.231846,-10.92927 -4.018418,-24.42418 -0.674063,-49.99071 -8.210937,-73.80468 -2.748562,-6.99774 -8.36063,-12.2219 -13.419922,-17.56055 10.17744,-8.78993 15.930049,-21.47037 16.965853,-34.780069 3.1324,-20.242198 1.14817,-41.105407 5.752897,-61.102745 1.366724,-5.784765 7.645743,-7.277241 12.625,-8.451172 -0.668491,-5.578253 1.333079,-13.826568 -1,-17.740234 -1.146457,0.0051 -2.29308,-0.01003 -3.439453,0.0078 z"
     style="fill:#d85f5f;fill-opacity:1;stroke-width:1.00157;paint-order:markers fill stroke" />
  <path
     id="path2108"
     d="m 148.85714,-21.574219 c -0.28703,4.840767 -0.0573,12.516041 6.61719,12.410157 9.42815,2.301517 7.00494,13.970046 8.39275,21.17435 2.46875,21.482101 0.72181,43.811248 7.47834,64.581512 3.26218,5.98662 8.02866,10.94547 12.35157,16.1582 -13.70574,11.30539 -18.00583,29.65174 -18.01367,46.67383 -1.51496,16.40991 -0.10428,33.34813 -4.48047,49.34961 -1.7158,5.24693 -7.73086,6.22649 -12.34571,7.48633 0,6.0052 0,12.01041 0,18.01562 10.44003,-0.70535 24.25114,-3.57885 26.53907,-15.80859 6.59592,-26.69432 3.38849,-54.70971 8.16796,-81.63086 1.69294,-7.46602 7.78949,-12.17958 13.43946,-16.52344 3.96767,-7.06981 1.70262,-17.10664 -5.80274,-20.94531 -10.95647,-8.55251 -8.55563,-24.068496 -10.27355,-36.326709 -1.89742,-18.688271 -0.55551,-37.942633 -5.36707,-56.206497 -3.06301,-11.70548 -15.84442,-15.999648 -26.70313,-16.113281 0,2.56836 0,5.136719 0,7.705078 z"
     style="fill:#d85f5f;fill-opacity:1;stroke-width:1.00157;paint-order:markers fill stroke" />
  <path
     id="path2110"
     d="m 48.320034,-20.419922 c -15.35861,0.63206 -31.115151,-1.225039 -46.205079,1.992188 -5.7932728,4.080707 -3.613393,12.742215 -5.3673343,18.81651 -3.7309774,31.727849 -6.6362524,63.566858 -8.1756337,95.480364 3.6551469,5.39827 8.746062,7.32372 15.130859,6.13086 7.051432,0 14.102865,0 21.154297,0 -0.77984,5.37174 1.714122,12.60152 -2.1875,16.9375 -5.223605,2.96199 -14.918618,1.41933 -14.949219,9.82422 -1.680825,23.41045 -2.237108,47.08281 -0.05664,70.48437 -0.221944,8.24148 13.013012,10.59114 15.021484,2.43164 2.154525,-3.86303 -1.294291,-13.18581 5.671875,-11.17773 4.605294,1.45876 15.133059,-3.27696 15.13463,2.99698 0.89529,9.15055 -0.184811,18.91111 2.437636,27.69247 6.337999,5.47573 15.821038,2.76876 23.529013,3.77758 8.588934,-0.67746 18.251441,1.50294 26.097941,-2.69555 6.510097,-8.75131 0.75122,-21.0085 4.677727,-30.56054 4.84067,-2.99698 11.64646,-1.79511 17.05274,-0.97071 3.2893,3.37437 0.26294,9.83624 4.74804,13.00586 4.25894,5.4443 14.7152,2.85889 13.44727,-4.9707 0.91398,-24.49808 0.61135,-49.13555 -0.39844,-73.59961 -4.06521,-4.94049 -11.48116,-4.32771 -17.22656,-5.40625 0.70208,-5.29762 -1.5588,-12.20619 2.04297,-16.59765 10.53043,-3.07545 22.7035,0.30393 32.59961,-4.92579 3.4403,-8.29837 0.45879,-17.92216 0.54031,-26.680608 -2.66845,-29.554284 -3.81883,-59.416766 -9.20828,-88.61431 -4.76887,-5.473988 -13.25648,-1.956903 -19.58375,-3.142785 -25.307897,-0.317165 -50.618682,-0.255507 -75.927966,-0.228309 z m 34.214843,16.439453 c 15.430766,0.206063 30.943713,-0.235778 46.322263,0.759766 3.09044,28.817886 6.9094,57.759289 6.7168,86.761723 -25.02792,1.66971 -50.680401,0.91344 -75.947201,1.30155 C 41.97071,84.64288 23.989078,85.37017 6.529018,84.20898 8.096863,55.038956 10.656244,25.827121 14.439174,-3.132812 37.074881,-4.318647 59.853662,-3.808606 82.534877,-3.980469 Z M 99.857143,109.33398 c 0.334387,4.28727 0.012,11.4099 -6.24805,10.29493 -16.904716,0.70564 -33.836308,0.22767 -50.75195,0.37109 0.696198,-5.25303 -1.387975,-12.03567 1.683594,-16.52344 18.283205,-2.22006 36.902548,-0.96312 55.316406,-1.66601 0,2.50781 0,5.01562 0,7.52343 z M 71.357143,137 c 15.83333,0 31.666667,0 47.499997,0 0,12 0,24 0,36 -31.666667,0 -63.33333,0 -94.999997,0 0,-12 0,-24 0,-36 15.833333,0 31.666667,0 47.5,0 z m 1.517578,52.80859 c 5.428395,-0.91925 11.263119,2.89493 9.751953,8.90625 0.492152,5.19373 -2.555227,13.08322 -9.111304,10.7967 -4.148193,-0.97567 -12.587397,0.54821 -11.555462,-6.22881 -0.330235,-4.85106 -1.000389,-14.16668 6.396071,-13.36611 1.504617,-0.0827 3.011711,-0.13249 4.518742,-0.10803 z"
     style="fill:#d85f5f;fill-opacity:1;stroke-width:1.00157;paint-order:markers fill stroke" />
  <path
     id="path2112"
     d="M 86.425502,5.9667969 C 84.780795,10.702791 84.994923,17.958893 81.763395,20.997972 76.55082,20.056306 69.316474,22.954251 65.232143,18.888672 64.769513,12.384374 66.797977,5.8355147 67.079799,-0.7011719 59.962209,-1.6034294 52.025441,-3.1711488 45.159877,-1.078125 42.460544,5.6490642 43.210916,14.229836 38.993862,20.162109 32.793581,21.64662 26.298233,20.732149 19.98019,21 c -0.946826,4.173307 -2.761581,12.182085 4.085937,11.908203 3.661149,1.054594 12.264255,-1.530094 11.808594,4.59375 0.19678,4.871584 -2.57419,10.204845 -8.210937,9.386719 -4.842854,1.455466 -14.257177,-3.229333 -14.363087,4.008718 -1.257944,3.281091 -2.032583,9.337326 3.230274,8.965891 4.121901,0.769738 12.20156,-1.416667 13.238281,4.1875 -0.0201,5.614653 -4.495732,11.916172 -1.912109,17.234375 6.194458,2.250283 13.545182,1.872988 20,1.279297 1.402191,-7.57887 3.05791,-15.12308 5.076172,-22.564453 6.582311,0.674543 14.204093,-1.364287 20.263672,1.333984 2.741749,6.724106 -4.390683,14.379827 -0.982422,20.695313 6.180614,1.722285 13.431781,0.512453 19.46289,-1.335938 C 94.589416,74.148867 95.435276,66.903313 97.187221,60 c 7.169919,0 14.339839,0 21.509759,0 0.56391,-3.62091 6.00081,-11.361677 -0.31836,-12.605469 C 112.90691,46.673784 107.35997,47.133161 101.85714,47 c -0.64073,-5.739343 0.4644,-15.48213 8.52734,-13.849609 4.94482,-1.639872 14.45784,3.044103 15.83372,-3.048525 1.59023,-3.340786 2.22407,-9.48923 -3.2595,-8.931944 -4.82818,-1.119329 -11.3388,1.612289 -15.22656,-1.853516 -0.45479,-6.527104 3.83708,-13.5592671 1.65821,-19.832031 -6.82523,-2.00192 -14.171349,-1.0757735 -21.207035,-1.65625 -0.585938,2.7128906 -1.171875,5.4257812 -1.757813,8.1386719 z M 72.075893,33.011719 c 3.712052,-0.400646 10.142035,0.505799 8.462891,5.796875 0.188719,5.35202 -3.846306,9.932079 -9.466797,8.53125 -4.029242,-1.26183 -13.102456,1.715997 -13.642037,-2.838518 -0.58862,-4.889455 0.870089,-11.67821 7.147896,-11.263045 2.489337,-0.264135 4.998239,-0.240735 7.498047,-0.226562 z"
     style="fill:#d85f5f;fill-opacity:1;stroke-width:1.00157;paint-order:markers fill stroke" />
  <path
     id="path2114"
     d="m 43.527065,4.75 c -2.083116,5.402372 -0.402795,16.023359 -8.699219,16.044922 -4.907883,1.271362 -11.978679,-1.883413 -15.589844,2.382812 -1.437825,4.132921 -0.32543,10.654923 5.435547,9.765625 4.100732,-0.129593 12.200576,-0.421397 10.851563,5.919922 0.394283,6.899567 -6.990892,8.848115 -12.521446,8.129924 -6.280492,-1.101428 -10.985356,-0.0331 -10.60055,7.191165 -1.963166,5.563066 4.764575,6.441998 8.647386,5.850786 4.379157,-0.765213 10.285137,1.679954 7.996094,7.044922 -0.326063,4.466044 -5.078372,12.098585 0.332031,14.980469 5.98738,0.695578 12.775322,1.955418 18.466797,-0.06641 C 49.939378,74.795819 51.215164,67.302472 53.023159,60 c 6.621751,0.819098 15.21482,-1.92016 20.65039,2.828125 0.994545,6.300311 -4.65715,13.260702 -1.539062,19.158203 6.104419,1.90187 13.445792,0.764057 19.419922,-1.191406 3.091774,-6.509826 3.972512,-13.810717 5.802734,-20.730469 C 104.6586,59.877348 111.96003,59.689196 119.26144,59.5 c 1.25271,-3.803649 5.30029,-12.355199 -2.04297,-12.261719 -4.75563,-1.142081 -12.63803,1.261175 -15.51963,-1.2337 -0.0807,-5.433673 1.08023,-13.35128 8.3165,-12.779972 4.99374,-1.084326 12.02296,1.197346 15.81219,-1.182601 1.41978,-3.609444 4.06633,-11.070031 -2.53484,-10.825211 C 118.39313,20.349276 112.5164,21.51853 108.14621,19.416016 107.5196,12.89214 111.6674,6.0057752 109.72238,-0.2304688 103.07888,-3.3531612 95.140204,-1.3842677 87.993862,-2 86.352603,5.5586316 85.051414,13.245654 82.280971,20.5 76.895015,19.829395 68.560369,23.304986 64.995815,17.84375 64.284706,11.832416 69.135945,4.7759638 65.650112,-0.671875 59.087078,-2.8480585 51.844549,-1.6385689 45.017299,-2 44.520554,0.25 44.02381,2.5 43.527065,4.75 Z m 26.529297,28.689453 c 3.609205,0.427843 11.886143,-0.988896 10.18164,5.253906 -0.03945,5.273666 -4.006269,9.735624 -9.568359,8.294922 -3.988638,-0.682079 -10.239513,1.486821 -12.955078,-2.072265 -0.637091,-4.887308 0.526334,-12.703777 7.291016,-11.353516 1.681275,-0.111783 3.366254,-0.137876 5.050781,-0.123047 z"
     style="fill:#d85f5f;fill-opacity:1;stroke-width:1.00157;paint-order:markers fill stroke" />
</svg>
